<svg xmlns="http://www.w3.org/2000/svg" width="29" height="29" viewBox="0 0 29 29">
  <g id="download" transform="translate(-100 -341)">
    <circle id="Ellipse_3" data-name="Ellipse 3" cx="14.5" cy="14.5" r="14.5" transform="translate(100 341)" fill="#e4e4e4" opacity="0.151"/>
    <g id="svgexport-6_6_" data-name="svgexport-6 (6)" transform="translate(108 349)">
      <path id="Path_77" data-name="Path 77" d="M13.646,12.793a.853.853,0,0,1-.853.853H.853a.853.853,0,1,1,0-1.706h11.94A.853.853,0,0,1,13.646,12.793Zm-7.426-2.7a.853.853,0,0,0,1.206,0l3.022-3.022A.853.853,0,0,0,9.241,5.863L7.676,7.429V.853a.853.853,0,0,0-1.706,0V7.429L4.4,5.863A.853.853,0,0,0,3.2,7.069Z" transform="translate(0 0)" fill="#047980"/>
    </g>
  </g>
</svg>
