<svg xmlns="http://www.w3.org/2000/svg" width="12.734" height="12.734" viewBox="0 0 12.734 12.734">
  <g id="svgexport-6_4_" data-name="svgexport-6 (4)" transform="translate(0 0)">
    <g id="Group_16" data-name="Group 16" transform="translate(0 0.001)">
      <path id="Path_74" data-name="Path 74" d="M10.322,85.466a.373.373,0,0,0-.373.373v5.472a.623.623,0,0,1-.622.622H1.368a.623.623,0,0,1-.622-.622V83.352a.623.623,0,0,1,.622-.622H6.84a.373.373,0,1,0,0-.746H1.368A1.37,1.37,0,0,0,0,83.352v7.959a1.37,1.37,0,0,0,1.368,1.368H9.327A1.37,1.37,0,0,0,10.7,91.311V85.839A.373.373,0,0,0,10.322,85.466Z" transform="translate(0 -79.945)" fill="#6eb592"/>
      <path id="Path_75" data-name="Path 75" d="M187.18.959l-.7-.7a.872.872,0,0,0-1.231,0l-5.628,5.628a.373.373,0,0,0-.1.191l-.352,1.759a.373.373,0,0,0,.439.439l1.759-.352a.373.373,0,0,0,.191-.1L187.18,2.19h0a.872.872,0,0,0,0-1.231ZM181.1,7.21l-1.1.22.22-1.1,4.581-4.581.879.879Zm5.548-5.548-.44.44-.879-.879.44-.44a.124.124,0,0,1,.176,0l.7.7A.124.124,0,0,1,186.653,1.662Z" transform="translate(-174.701 -0.001)" fill="#6eb592"/>
    </g>
  </g>
</svg>
