<svg xmlns="http://www.w3.org/2000/svg" xmlns:xlink="http://www.w3.org/1999/xlink" width="214.342" height="157.405" viewBox="0 0 214.342 157.405">
  <defs>
    <clipPath id="clip-path">
      <rect x="49" width="214.342" height="157.405" fill="none"/>
    </clipPath>
  </defs>
  <g id="email" transform="translate(-49)" clip-path="url(#clip-path)" style="mix-blend-mode: normal;isolation: isolate">
    <path id="Path_61" data-name="Path 61" d="M25.421,164.039H198.5a25.449,25.449,0,0,0,25.421-25.421V21.171A25.45,25.45,0,0,0,198.5-4.25H25.421A25.45,25.45,0,0,0,0,21.171V138.618A25.449,25.449,0,0,0,25.421,164.039Zm0-7.572a17.732,17.732,0,0,1-10.807-3.656L66.376,99.867a3.786,3.786,0,1,0-5.416-5.292L9.682,147.025a17.768,17.768,0,0,1-2.109-8.407V29.518l87.992,74.508a25.338,25.338,0,0,0,32.868-.015l87.918-74.565V138.618a17.735,17.735,0,0,1-2.123,8.434L162.642,94.565a3.786,3.786,0,0,0-5.4,5.307l52.046,52.955a17.738,17.738,0,0,1-10.785,3.639Zm0-153.145H198.5a17.872,17.872,0,0,1,17.775,16.258l-92.74,78.656a17.791,17.791,0,0,1-23.079.008L7.643,19.653A17.867,17.867,0,0,1,25.421,3.322Zm0,0" transform="translate(1.243 69.533) rotate(-17)" fill="#1e2133"/>
  </g>
</svg>
