<svg xmlns="http://www.w3.org/2000/svg" width="8.142" height="10.277" viewBox="0 0 8.142 10.277">
  <g id="svgexport-6_5_" data-name="svgexport-6 (5)" transform="translate(-0.5)">
    <g id="surface1" transform="translate(0.5)">
      <path id="Path_71" data-name="Path 71" d="M6.038.079A.249.249,0,0,0,5.86,0H1.85A1.356,1.356,0,0,0,.5,1.348V8.929a1.356,1.356,0,0,0,1.35,1.348H7.292a1.356,1.356,0,0,0,1.35-1.348V2.909a.267.267,0,0,0-.072-.174Zm.072.8,1.7,1.78H6.7a.591.591,0,0,1-.593-.591Zm1.182,8.9H1.85A.86.86,0,0,1,1,8.929V1.348A.86.86,0,0,1,1.85.5H5.614V2.065A1.086,1.086,0,0,0,6.7,3.153H8.146V8.929A.858.858,0,0,1,7.292,9.781Zm0,0" transform="translate(-0.5 0)" fill="#f36768"/>
      <path id="Path_72" data-name="Path 72" d="M93.506,401.934H89.42a.248.248,0,1,0,0,.5h4.089a.248.248,0,1,0,0-.5Zm0,0" transform="translate(-87.392 -393.866)" fill="#f36768"/>
      <path id="Path_73" data-name="Path 73" d="M120.147,174.055a.246.246,0,0,0,.362,0l1.455-1.561a.248.248,0,0,0-.362-.338l-1.025,1.1v-2.711a.248.248,0,1,0-.5,0v2.711l-1.023-1.1a.248.248,0,0,0-.362.338Zm0,0" transform="translate(-116.257 -166.879)" fill="#f36768"/>
    </g>
  </g>
</svg>
