<svg xmlns="http://www.w3.org/2000/svg" width="17.859" height="18" viewBox="0 0 17.859 18">
  <g id="Group_4202" data-name="Group 4202" transform="translate(-27 -586)">
    <g id="settings" transform="translate(25 586)">
      <g id="Group_4199" data-name="Group 4199" transform="translate(7.966 6.037)">
        <g id="Group_4198" data-name="Group 4198">
          <path id="Path_70592" data-name="Path 70592" d="M178.963,176a2.963,2.963,0,1,0,2.963,2.963A2.967,2.967,0,0,0,178.963,176Zm0,4.445a1.482,1.482,0,1,1,1.482-1.482A1.483,1.483,0,0,1,178.963,180.445Z" transform="translate(-176 -176)" fill="#c89c15"/>
        </g>
      </g>
      <g id="Group_4201" data-name="Group 4201" transform="translate(2)">
        <g id="Group_4200" data-name="Group 4200">
          <path id="Path_70593" data-name="Path 70593" d="M19.583,11.1,17.763,9.7a6.628,6.628,0,0,0,0-1.4l1.821-1.4a.7.7,0,0,0,.178-.916L18,3a.7.7,0,0,0-.863-.3l-2.16.851a6.872,6.872,0,0,0-1.262-.715L13.388.6a.7.7,0,0,0-.7-.6H9.166a.7.7,0,0,0-.7.6L8.146,2.839a6.874,6.874,0,0,0-1.262.715L4.724,2.7A.7.7,0,0,0,3.86,3L2.1,5.988a.7.7,0,0,0,.178.916L4.1,8.3a6.628,6.628,0,0,0,0,1.4L2.275,11.1a.7.7,0,0,0-.178.916L3.86,15a.7.7,0,0,0,.863.3l2.16-.851a6.873,6.873,0,0,0,1.262.715L8.47,17.4a.7.7,0,0,0,.7.6h3.526a.7.7,0,0,0,.7-.6l.324-2.237a6.871,6.871,0,0,0,1.262-.715l2.16.851A.7.7,0,0,0,18,15l1.763-2.988A.7.7,0,0,0,19.583,11.1Zm-2.491,2.671-1.97-.776a.7.7,0,0,0-.7.108,5.478,5.478,0,0,1-1.586.9.7.7,0,0,0-.456.56l-.3,2.036H9.775l-.3-2.036A.7.7,0,0,0,9.024,14a5.479,5.479,0,0,1-1.586-.9.7.7,0,0,0-.7-.108l-1.97.776L3.625,11.834l1.651-1.265a.7.7,0,0,0,.265-.678,5.239,5.239,0,0,1,0-1.782.7.7,0,0,0-.265-.678L3.625,6.166,4.766,4.232l1.97.776a.7.7,0,0,0,.7-.108A5.479,5.479,0,0,1,9.024,4a.7.7,0,0,0,.456-.56l.3-2.036h2.309l.3,2.036a.7.7,0,0,0,.456.56,5.479,5.479,0,0,1,1.586.9.7.7,0,0,0,.7.108l1.97-.776,1.142,1.934L16.583,7.431a.7.7,0,0,0-.265.678,5.239,5.239,0,0,1,0,1.782.7.7,0,0,0,.265.678l1.651,1.265Z" transform="translate(-2)" fill="#c89c15"/>
        </g>
      </g>
    </g>
  </g>
</svg>
