<svg xmlns="http://www.w3.org/2000/svg" width="34.991" height="24.494" viewBox="0 0 34.991 24.494">
  <g id="svgexport-10_2_" data-name="svgexport-10 (2)" transform="translate(0 -76.8)">
    <path id="Path_63" data-name="Path 63" d="M26.243,78.55a1.75,1.75,0,0,0-1.75-1.75H1.75a1.75,1.75,0,0,0,0,3.5H24.494A1.75,1.75,0,0,0,26.243,78.55ZM1.75,87.3H33.241a1.75,1.75,0,1,1,0,3.5H1.75a1.75,1.75,0,1,1,0-3.5Zm0,10.5H17.5a1.75,1.75,0,0,1,0,3.5H1.75a1.75,1.75,0,0,1,0-3.5Z" transform="translate(0)" fill="#020202"/>
  </g>
</svg>
